<?xml version="1.0" standalone="no"?>
<!DOCTYPE svg PUBLIC "-//W3C//DTD SVG 20010904//EN"
 "http://www.w3.org/TR/2001/REC-SVG-20010904/DTD/svg10.dtd">
<svg version="1.0" xmlns="http://www.w3.org/2000/svg"
 width="250.000000pt" height="250.000000pt" viewBox="0 0 250.000000 250.000000"
 preserveAspectRatio="xMidYMid meet">
<metadata>
Created by potrace 1.11, written by Peter Selinger 2001-2013
</metadata>
<g transform="translate(0.000000,250.000000) scale(0.100000,-0.100000)"
fill="#000000" stroke="none">
<path d="M1109 2495 c-2 -2 -31 -6 -63 -9 -32 -4 -63 -9 -68 -12 -5 -3 -23 -8
-40 -11 -87 -14 -299 -106 -400 -176 -113 -76 -246 -208 -316 -312 -26 -38
-51 -73 -57 -77 -5 -4 -6 -8 -1 -8 5 0 4 -6 -2 -12 -39 -49 -110 -226 -131
-328 -6 -30 -14 -66 -17 -80 -4 -14 -7 -91 -9 -171 -2 -156 8 -241 47 -364 12
-38 22 -72 23 -75 24 -76 108 -227 178 -319 40 -52 172 -191 182 -191 5 0 46
-34 71 -58 8 -7 14 -10 14 -6 0 4 10 -2 22 -13 46 -41 257 -145 322 -157 12
-3 48 -11 81 -20 100 -25 124 -28 270 -31 271 -6 503 63 727 217 82 56 268
228 268 249 0 4 6 14 13 21 76 77 202 354 223 488 3 19 9 55 14 80 9 49 6 297
-4 345 -7 36 -16 88 -16 95 0 3 -13 44 -29 92 -48 141 -128 288 -216 396 -21
26 -144 149 -167 167 -105 84 -225 154 -333 195 -33 13 -69 26 -80 31 -24 10
-83 25 -156 40 -50 10 -342 22 -350 14z"/>
</g>
</svg>
